<svg width="12" height="15" viewBox="0 0 12 15" fill="none" xmlns="http://www.w3.org/2000/svg">
<g clip-path="url(#clip0_1116_477)">
<path d="M11.9036 2.16732C11.7096 1.41454 11.2442 0.783012 10.5945 0.393992C9.25145 -0.409308 7.52539 0.0706512 6.74963 1.47011L2.74963 8.67961C2.49267 9.13936 2.42479 9.67995 2.5557 10.1953C2.6866 10.7106 3.00176 11.135 3.44297 11.3977C4.35448 11.9433 5.52297 11.6149 6.05145 10.6651L9.56176 4.33977C9.71206 4.12252 9.66842 3.81939 9.46479 3.66277C9.36297 3.58699 9.24176 3.55667 9.12054 3.57183C8.99933 3.59204 8.88782 3.65772 8.81509 3.76381C8.7957 3.79413 8.7763 3.82444 8.77145 3.8396L5.25145 10.1751C4.97509 10.6752 4.38357 10.8369 3.90842 10.554C3.68054 10.4176 3.5157 10.1953 3.44782 9.93761C3.37994 9.67489 3.41873 9.40207 3.54964 9.16462L7.55448 1.95512C8.08297 1.00026 9.21751 0.681968 10.129 1.23266C10.5654 1.49537 10.8805 1.91471 11.0066 2.41487C11.1375 2.91504 11.0648 3.44552 10.8127 3.90528L5.96418 12.6304C5.21751 13.9743 3.56418 14.4341 2.27448 13.6611C1.64903 13.2872 1.20297 12.681 1.01873 11.9635C0.834483 11.2461 0.931453 10.4883 1.29509 9.83151L5.60539 2.08648C5.73145 1.85408 5.65873 1.556 5.4357 1.42464C5.32903 1.35896 5.20297 1.34381 5.08176 1.37412C4.96054 1.40949 4.86357 1.49032 4.80054 1.60147L0.490241 9.3465C0.000543941 10.2256 -0.125517 11.2411 0.126605 12.2162C0.378726 13.1862 0.975089 13.9996 1.81388 14.5048C2.37145 14.8382 3.0163 15.01 3.69024 15.005C3.75327 15.005 3.82115 15.005 3.88418 14.9999C5.09145 14.909 6.17267 14.2067 6.77873 13.1154L11.6272 4.39029C12.0054 3.71329 12.1072 2.9201 11.9084 2.16732H11.9036Z" fill="#F8F0EC"/>
</g>
<defs>
<clipPath id="clip0_1116_477">
<rect width="12" height="15" fill="white"/>
</clipPath>
</defs>
</svg>
