<svg width="456" height="156" viewBox="0 0 456 156" fill="none" xmlns="http://www.w3.org/2000/svg">
<g clip-path="url(#clip0_1023_133)">
<path d="M0 90.9004H11.85C18.95 90.9004 23.6 95.5504 23.6 101.85C23.6 108.15 18.95 112.85 11.85 112.85H3.35V125.9H0V90.9004ZM11.75 109.65C17 109.65 20.25 106.45 20.25 101.85C20.25 97.2504 17 94.0504 11.75 94.0504H3.35V109.65H11.75Z" fill="#F8F0EC"/>
<path d="M30.6992 101.1H33.3492L33.8492 105.45C35.7492 102.65 38.6992 101.1 42.6992 101.1H44.9492V104.25H42.4492C37.0992 104.25 33.8992 107.65 33.8992 113.45V125.9H30.6992V101.1Z" fill="#F8F0EC"/>
<path d="M48.4004 113.5C48.4004 106.15 54.0504 100.55 61.7504 100.55C69.4504 100.55 75.0504 106.15 75.0504 113.5C75.0504 120.85 69.4004 126.5 61.7504 126.5C54.1004 126.5 48.4004 120.85 48.4004 113.5ZM61.7504 123.5C67.5504 123.5 71.8504 119.2 71.8504 113.5C71.8504 107.8 67.5504 103.5 61.7504 103.5C55.9504 103.5 51.6004 107.8 51.6004 113.5C51.6004 119.2 55.9004 123.5 61.7504 123.5Z" fill="#F8F0EC"/>
<path d="M80.9492 113.5C80.9492 106.1 86.5492 100.55 93.8992 100.55C98.0492 100.55 101.699 102.35 104.049 105.2V89.25H107.249V125.9H104.599L104.099 121.75C101.749 124.65 98.0992 126.5 93.8992 126.5C86.5492 126.5 80.9492 120.9 80.9492 113.5ZM94.1492 123.5C100.049 123.5 104.199 119.35 104.199 113.5C104.199 107.65 100.049 103.5 94.1492 103.5C88.2492 103.5 84.1492 107.65 84.1492 113.5C84.1492 119.35 88.3492 123.5 94.1492 123.5Z" fill="#F8F0EC"/>
<path d="M127.249 123.45C132.099 123.45 135.949 119.4 135.949 113.9V101.1H139.149V125.9H136.499L135.999 121.65C133.899 124.7 130.349 126.5 126.549 126.5C120.349 126.5 116.449 122.4 116.449 115.45V101.1H119.649V114.85C119.649 121 122.449 123.45 127.249 123.45Z" fill="#F8F0EC"/>
<path d="M146.65 113.5C146.65 106.05 152.15 100.55 159.65 100.55C165.85 100.55 170.45 104.1 172 109.65H168.7C167.3 105.7 164 103.55 159.6 103.55C154.05 103.55 149.85 107.7 149.85 113.5C149.85 119.3 154.05 123.5 159.6 123.5C164 123.5 167.3 121.3 168.75 117.35H172.05C170.4 122.95 165.8 126.5 159.65 126.5C152.15 126.5 146.65 121 146.65 113.5Z" fill="#F8F0EC"/>
<path d="M181.351 116.8V104.05H175.801V101.1H181.401L181.651 93.9502H184.551V101.1H193.801V104.05H184.551V116.75C184.551 120.75 186.701 122.85 190.601 122.85H194.001V125.9H190.351C184.701 125.9 181.351 122.55 181.351 116.8Z" fill="#F8F0EC"/>
<path d="M198.75 113.5C198.75 106.15 204.4 100.55 212.1 100.55C219.8 100.55 225.4 106.15 225.4 113.5C225.4 120.85 219.75 126.5 212.1 126.5C204.45 126.5 198.75 120.85 198.75 113.5ZM212.1 123.5C217.9 123.5 222.2 119.2 222.2 113.5C222.2 107.8 217.9 103.5 212.1 103.5C206.3 103.5 201.95 107.8 201.95 113.5C201.95 119.2 206.25 123.5 212.1 123.5Z" fill="#F8F0EC"/>
<path d="M232.949 101.1H235.599L236.099 105.45C237.999 102.65 240.949 101.1 244.949 101.1H247.199V104.25H244.699C239.349 104.25 236.149 107.65 236.149 113.45V125.9H232.949V101.1Z" fill="#F8F0EC"/>
<path d="M253.051 89.9502H256.951V94.1002H253.051V89.9502ZM253.401 101.1H256.601V125.9H253.401V101.1Z" fill="#F8F0EC"/>
<path d="M273.5 111.8H282.7V110.55C282.7 105.95 280.05 103.5 275.6 103.5C271.65 103.5 269.25 105.25 268.5 108.05H265.1C266 103.45 269.95 100.55 275.65 100.55C281.8 100.55 285.85 104.35 285.85 110.25V125.9H283.25L282.85 121.95C280.65 124.95 277.05 126.5 273.35 126.5C267.95 126.5 264.4 123.7 264.4 119.1C264.4 114.8 267.7 111.8 273.5 111.8ZM273.5 123.5C279.1 123.5 282.7 119.9 282.7 115.4V114.55H273.6C269.65 114.55 267.65 116.3 267.65 119.05C267.65 121.8 269.75 123.5 273.5 123.5Z" fill="#F8F0EC"/>
<path d="M293.539 121.4H297.539V125.9H293.539V121.4Z" fill="#F8F0EC"/>
<path d="M304.391 115.3H307.741C307.741 120 310.991 123.25 317.091 123.25C322.841 123.25 325.791 120.3 325.791 116.55C325.791 111.75 321.291 110.65 316.341 109.45C310.941 108.15 305.091 106.6 305.091 99.7998C305.091 94.3998 309.141 90.2998 316.691 90.2998C324.241 90.2998 328.191 94.5498 328.191 100.6H324.791C324.791 96.5498 321.841 93.5498 316.591 93.5498C311.341 93.5498 308.441 96.2498 308.441 99.6498C308.441 104.1 312.691 105.2 317.541 106.35C323.091 107.75 329.141 109.2 329.141 116.35C329.141 122.1 324.791 126.5 317.091 126.5C308.941 126.5 304.391 121.9 304.391 115.3Z" fill="#F8F0EC"/>
<path d="M340.29 121.8V135.55H337.09V101.1H339.74L340.24 105.25C342.64 102.35 346.24 100.55 350.44 100.55C357.84 100.55 363.39 106.1 363.39 113.5C363.39 120.9 357.84 126.5 350.44 126.5C346.29 126.5 342.64 124.7 340.29 121.8ZM350.19 123.5C356.04 123.5 360.19 119.35 360.19 113.5C360.19 107.65 356.04 103.5 350.19 103.5C344.34 103.5 340.14 107.65 340.14 113.5C340.14 119.35 344.29 123.5 350.19 123.5Z" fill="#F8F0EC"/>
<path d="M378.639 111.8H387.839V110.55C387.839 105.95 385.189 103.5 380.739 103.5C376.789 103.5 374.389 105.25 373.639 108.05H370.239C371.139 103.45 375.089 100.55 380.789 100.55C386.939 100.55 390.989 104.35 390.989 110.25V125.9H388.389L387.989 121.95C385.789 124.95 382.189 126.5 378.489 126.5C373.089 126.5 369.539 123.7 369.539 119.1C369.539 114.8 372.839 111.8 378.639 111.8ZM378.639 123.5C384.239 123.5 387.839 119.9 387.839 115.4V114.55H378.739C374.789 114.55 372.789 116.3 372.789 119.05C372.789 121.8 374.889 123.5 378.639 123.5Z" fill="#F8F0EC"/>
<path d="M398.141 113.5C398.141 106.05 403.641 100.55 411.141 100.55C417.341 100.55 421.941 104.1 423.491 109.65H420.191C418.791 105.7 415.491 103.55 411.091 103.55C405.541 103.55 401.341 107.7 401.341 113.5C401.341 119.3 405.541 123.5 411.091 123.5C415.491 123.5 418.791 121.3 420.241 117.35H423.541C421.891 122.95 417.291 126.5 411.141 126.5C403.641 126.5 398.141 121 398.141 113.5Z" fill="#F8F0EC"/>
<path d="M429.289 113.5C429.289 106.05 434.839 100.55 442.189 100.55C449.539 100.55 455.139 105.9 455.139 113.45C455.139 113.9 455.089 114.25 455.089 114.6H432.539C433.039 119.9 436.939 123.5 442.489 123.5C446.289 123.5 449.189 122 450.989 118.95H454.339C452.189 123.6 448.089 126.5 442.439 126.5C434.739 126.5 429.289 120.9 429.289 113.5ZM451.839 111.8C451.289 107 447.739 103.5 442.189 103.5C437.139 103.5 433.339 106.85 432.589 111.8H451.839Z" fill="#F8F0EC"/>
<path d="M284.08 0C276.83 0 264.61 5.24 247.75 15.56C235.13 7.84 220.16 0 211.39 0C203.6 0 196.46 2.84 190.95 7.54C182.51 3.21 174.37 0 168.76 0C151.35 0 137.18 14.17 137.18 31.58C137.18 48.99 151.35 63.16 168.76 63.16C173.76 63.16 181.23 60.62 190.95 55.62C196.46 60.32 203.6 63.16 211.39 63.16C220.16 63.16 235.12 55.32 247.74 47.61C260.35 55.33 275.32 63.16 284.09 63.16C301.5 63.16 315.67 48.99 315.67 31.58C315.67 14.17 301.5 0 284.08 0ZM211.39 3C225.46 3 258.63 25.99 266.48 31.58C263.34 33.82 256.14 38.84 247.73 44.06C236.54 37.11 227.49 30.51 227.3 30.37C226.23 29.59 209.95 17.72 193.83 9.05C198.68 5.26 204.77 3 211.39 3ZM140.18 31.58C140.18 15.82 153 3 168.76 3C173.68 3 180.94 5.82 188.64 9.71C183.18 15.39 179.81 23.09 179.81 31.57C179.81 40.05 183.17 47.75 188.63 53.43C179.81 57.89 173.13 60.15 168.76 60.15C153 60.15 140.18 47.33 140.18 31.57V31.58ZM211.39 60.16C195.63 60.16 182.81 47.34 182.81 31.58C182.81 23.59 186.11 16.35 191.42 11.16C207.88 19.91 225.27 32.59 225.53 32.79C226.28 33.34 234.48 39.32 244.86 45.83C232.88 53.09 219.2 60.16 211.39 60.16ZM284.08 60.16C276.27 60.16 262.59 53.08 250.61 45.83C260.99 39.32 269.19 33.34 269.94 32.79L271.59 31.58L269.94 30.37C269.19 29.82 260.99 23.84 250.61 17.33C266.11 7.95 277.66 3 284.08 3C299.84 3 312.66 15.82 312.66 31.58C312.66 47.34 299.84 60.16 284.08 60.16Z" fill="#F8F0EC"/>
<path d="M37.4299 151.44H37.7799C39.0299 151.44 39.7599 150.78 39.9599 148.67L40.5999 141.29H47.2899V152.49H46.2199V142.33H41.5899L41.0099 148.88C40.7699 151.44 39.7499 152.51 37.7899 152.51H37.4199V151.44H37.4299Z" fill="#F8F0EC"/>
<path d="M52.8199 147.98H55.7699V147.58C55.7699 146.11 54.9199 145.32 53.4999 145.32C52.2399 145.32 51.4699 145.88 51.2299 146.78H50.1399C50.4299 145.31 51.6899 144.38 53.5199 144.38C55.4899 144.38 56.7899 145.6 56.7899 147.48V152.49H55.9599L55.8299 151.23C55.1299 152.19 53.9699 152.69 52.7899 152.69C51.0599 152.69 49.9199 151.79 49.9199 150.32C49.9199 148.94 50.9799 147.98 52.8299 147.98H52.8199ZM52.8199 151.73C54.6099 151.73 55.7699 150.58 55.7699 149.14V148.87H52.8599C51.5999 148.87 50.9499 149.43 50.9499 150.31C50.9499 151.19 51.6199 151.73 52.8199 151.73Z" fill="#F8F0EC"/>
<path d="M59.6398 150.11C59.3198 149.34 59.2598 148.48 59.2598 147.52C59.2598 143.68 60.4798 141.25 64.2198 140.94C65.3098 140.86 66.3198 140.84 67.3298 140.6V141.59C66.3898 141.8 65.3598 141.8 64.3198 141.89C61.6298 142.15 60.5298 143.52 60.2998 146.26C61.0698 145.17 62.3498 144.64 63.7698 144.64C66.0698 144.64 67.7898 146.38 67.7898 148.63C67.7898 150.88 66.0398 152.68 63.5598 152.68C61.6098 152.68 60.2498 151.69 59.6398 150.1V150.11ZM63.5598 151.73C65.4598 151.73 66.7598 150.45 66.7598 148.66C66.7598 146.87 65.4798 145.62 63.5398 145.62C61.5998 145.62 60.3198 146.9 60.3198 148.66C60.3198 150.42 61.6298 151.73 63.5498 151.73H63.5598Z" fill="#F8F0EC"/>
<path d="M69.6406 148.53C69.6406 146.18 71.4506 144.38 73.9106 144.38C76.3706 144.38 78.1706 146.17 78.1706 148.53C78.1706 150.89 76.3606 152.69 73.9106 152.69C71.4606 152.69 69.6406 150.88 69.6406 148.53ZM73.9106 151.73C75.7706 151.73 77.1406 150.35 77.1406 148.53C77.1406 146.71 75.7606 145.33 73.9106 145.33C72.0606 145.33 70.6606 146.71 70.6606 148.53C70.6606 150.35 72.0406 151.73 73.9106 151.73Z" fill="#F8F0EC"/>
<path d="M81.6001 151.18V155.58H80.5801V144.55H81.4301L81.5901 145.88C82.3601 144.95 83.5101 144.38 84.8501 144.38C87.2201 144.38 89.0001 146.16 89.0001 148.53C89.0001 150.9 87.2201 152.69 84.8501 152.69C83.5201 152.69 82.3501 152.11 81.6001 151.19V151.18ZM84.7701 151.72C86.6401 151.72 87.9701 150.39 87.9701 148.52C87.9701 146.65 86.6401 145.32 84.7701 145.32C82.9001 145.32 81.5501 146.65 81.5501 148.52C81.5501 150.39 82.8801 151.72 84.7701 151.72Z" fill="#F8F0EC"/>
<path d="M93.8805 147.98H96.8305V147.58C96.8305 146.11 95.9805 145.32 94.5605 145.32C93.3005 145.32 92.5305 145.88 92.2905 146.78H91.2005C91.4905 145.31 92.7505 144.38 94.5805 144.38C96.5505 144.38 97.8505 145.6 97.8505 147.48V152.49H97.0205L96.8905 151.23C96.1905 152.19 95.0305 152.69 93.8505 152.69C92.1205 152.69 90.9805 151.79 90.9805 150.32C90.9805 148.94 92.0405 147.98 93.8905 147.98H93.8805ZM93.8805 151.73C95.6705 151.73 96.8305 150.58 96.8305 149.14V148.87H93.9205C92.6605 148.87 92.0105 149.43 92.0105 150.31C92.0105 151.19 92.6805 151.73 93.8805 151.73Z" fill="#F8F0EC"/>
<path d="M99.5898 144.56H106.97V145.54H103.8V152.5H102.78V145.54H99.5898V144.56Z" fill="#F8F0EC"/>
<path d="M108.039 148.53C108.039 146.18 109.849 144.38 112.309 144.38C114.769 144.38 116.569 146.17 116.569 148.53C116.569 150.89 114.759 152.69 112.309 152.69C109.859 152.69 108.039 150.88 108.039 148.53ZM112.309 151.73C114.169 151.73 115.539 150.35 115.539 148.53C115.539 146.71 114.159 145.33 112.309 145.33C110.459 145.33 109.059 146.71 109.059 148.53C109.059 150.35 110.439 151.73 112.309 151.73Z" fill="#F8F0EC"/>
<path d="M120 151.18V155.58H118.98V144.55H119.83L119.99 145.88C120.76 144.95 121.91 144.38 123.25 144.38C125.62 144.38 127.4 146.16 127.4 148.53C127.4 150.9 125.62 152.69 123.25 152.69C121.92 152.69 120.75 152.11 120 151.19V151.18ZM123.17 151.72C125.04 151.72 126.37 150.39 126.37 148.52C126.37 146.65 125.04 145.32 123.17 145.32C121.3 145.32 119.95 146.65 119.95 148.52C119.95 150.39 121.28 151.72 123.17 151.72Z" fill="#F8F0EC"/>
<path d="M129.811 144.56H130.821V150.91L135.721 144.56H136.761V152.5H135.751V146.15L130.851 152.5H129.811V144.56Z" fill="#F8F0EC"/>
<path d="M144.82 149.41H142.34L140.26 152.5H139.08L141.26 149.28C140.06 149.01 139.32 148.08 139.32 146.97C139.32 145.59 140.36 144.55 142.03 144.55H145.86V152.49H144.84V149.4L144.82 149.41ZM142.1 148.48H144.82V145.49H142.1C140.96 145.49 140.35 146.1 140.35 146.98C140.35 147.86 140.96 148.48 142.1 148.48Z" fill="#F8F0EC"/>
<path d="M153.199 144.56H160.289V152.5H159.269V145.54H154.229V152.5H153.209V144.56H153.199Z" fill="#F8F0EC"/>
<path d="M162.119 151.5H162.379C163.419 151.5 163.919 150.94 164.109 149.42L164.699 144.55H170.189V152.49H169.169V145.53H165.619L165.119 149.53C164.849 151.74 164.079 152.52 162.329 152.52H162.119V151.5Z" fill="#F8F0EC"/>
<path d="M175.589 147.98H178.539V147.58C178.539 146.11 177.689 145.32 176.269 145.32C175.009 145.32 174.239 145.88 173.999 146.78H172.909C173.199 145.31 174.459 144.38 176.289 144.38C178.259 144.38 179.559 145.6 179.559 147.48V152.49H178.729L178.599 151.23C177.899 152.19 176.739 152.69 175.559 152.69C173.829 152.69 172.689 151.79 172.689 150.32C172.689 148.94 173.749 147.98 175.599 147.98H175.589ZM175.589 151.73C177.379 151.73 178.539 150.58 178.539 149.14V148.87H175.629C174.369 148.87 173.719 149.43 173.719 150.31C173.719 151.19 174.389 151.73 175.589 151.73Z" fill="#F8F0EC"/>
<path d="M181.301 144.56H188.681V145.54H185.511V152.5H184.491V145.54H181.301V144.56Z" fill="#F8F0EC"/>
<path d="M194.21 152.69C191.52 152.61 189.74 150.79 189.74 148.53C189.74 146.27 191.52 144.46 194.21 144.38V140.83H195.23V144.38C197.92 144.48 199.68 146.28 199.68 148.53C199.68 150.78 197.92 152.6 195.23 152.69V155.59H194.21V152.69ZM194.21 151.73V145.33C192.07 145.41 190.77 146.75 190.77 148.53C190.77 150.31 192.07 151.65 194.21 151.73ZM198.66 148.53C198.66 146.77 197.35 145.41 195.23 145.33V151.73C197.34 151.65 198.66 150.29 198.66 148.53Z" fill="#F8F0EC"/>
<path d="M201.57 148.53C201.57 146.18 203.38 144.38 205.84 144.38C208.3 144.38 210.1 146.17 210.1 148.53C210.1 150.89 208.29 152.69 205.84 152.69C203.39 152.69 201.57 150.88 201.57 148.53ZM205.84 151.73C207.7 151.73 209.07 150.35 209.07 148.53C209.07 146.71 207.69 145.33 205.84 145.33C203.99 145.33 202.59 146.71 202.59 148.53C202.59 150.35 203.97 151.73 205.84 151.73Z" fill="#F8F0EC"/>
<path d="M213.54 151.18V155.58H212.52V144.55H213.37L213.53 145.88C214.3 144.95 215.45 144.38 216.79 144.38C219.16 144.38 220.94 146.16 220.94 148.53C220.94 150.9 219.16 152.69 216.79 152.69C215.46 152.69 214.29 152.11 213.54 151.19V151.18ZM216.71 151.72C218.58 151.72 219.91 150.39 219.91 148.52C219.91 146.65 218.58 145.32 216.71 145.32C214.84 145.32 213.49 146.65 213.49 148.52C213.49 150.39 214.82 151.72 216.71 151.72Z" fill="#F8F0EC"/>
<path d="M224.241 144.56H225.171L228.071 150.43L230.951 144.56H231.881L233.581 152.5H232.541L231.201 146.21L228.351 151.99H227.791L224.941 146.21L223.601 152.5H222.561L224.261 144.56H224.241Z" fill="#F8F0EC"/>
<path d="M240.199 144.56H241.209V150.91L246.109 144.56H247.149V152.5H246.139V146.15L241.239 152.5H240.199V144.56Z" fill="#F8F0EC"/>
<path d="M255.51 151.18V155.58H254.49V144.55H255.34L255.5 145.88C256.27 144.95 257.42 144.38 258.76 144.38C261.13 144.38 262.91 146.16 262.91 148.53C262.91 150.9 261.13 152.69 258.76 152.69C257.43 152.69 256.26 152.11 255.51 151.19V151.18ZM258.68 151.72C260.55 151.72 261.88 150.39 261.88 148.52C261.88 146.65 260.55 145.32 258.68 145.32C256.81 145.32 255.46 146.65 255.46 148.52C255.46 150.39 256.79 151.72 258.68 151.72Z" fill="#F8F0EC"/>
<path d="M264.789 148.53C264.789 146.15 266.569 144.38 268.919 144.38C271.269 144.38 273.069 146.09 273.069 148.51C273.069 148.65 273.049 148.77 273.049 148.88H265.829C265.989 150.58 267.239 151.73 269.019 151.73C270.239 151.73 271.169 151.25 271.739 150.27H272.809C272.119 151.76 270.809 152.69 268.999 152.69C266.539 152.69 264.789 150.9 264.789 148.53ZM272.009 147.99C271.829 146.45 270.699 145.33 268.919 145.33C267.299 145.33 266.089 146.4 265.849 147.99H272.009Z" fill="#F8F0EC"/>
<path d="M275.479 144.56H276.499V151.52H280.289V144.56H281.309V151.52H285.099V144.56H286.119V152.5H275.459V144.56H275.479Z" fill="#F8F0EC"/>
<path d="M288.529 148.53C288.529 146.15 290.309 144.38 292.659 144.38C295.009 144.38 296.809 146.09 296.809 148.51C296.809 148.65 296.789 148.77 296.789 148.88H289.569C289.729 150.58 290.979 151.73 292.759 151.73C293.979 151.73 294.909 151.25 295.479 150.27H296.549C295.859 151.76 294.549 152.69 292.739 152.69C290.279 152.69 288.529 150.9 288.529 148.53ZM295.749 147.99C295.569 146.45 294.439 145.33 292.659 145.33C291.039 145.33 289.829 146.4 289.589 147.99H295.749Z" fill="#F8F0EC"/>
<path d="M305.29 148.89H300.25V152.49H299.23V144.55H300.25V147.91H305.29V144.55H306.31V152.49H305.29V148.89Z" fill="#F8F0EC"/>
<path d="M309.25 144.56H310.26V150.91L315.16 144.56H316.2V152.5H315.19V146.15L310.29 152.5H309.25V144.56Z" fill="#F8F0EC"/>
<path d="M319.119 144.56H320.129V150.91L325.029 144.56H326.069V152.5H325.059V146.15L320.159 152.5H319.119V144.56ZM320.539 141.85H324.669V142.68H320.539V141.85Z" fill="#F8F0EC"/>
<path d="M339.48 148.89H334.44V152.49H333.42V144.55H334.44V147.91H339.48V144.55H340.5V152.49H339.48V148.89Z" fill="#F8F0EC"/>
<path d="M345.91 147.98H348.86V147.58C348.86 146.11 348.01 145.32 346.59 145.32C345.33 145.32 344.56 145.88 344.32 146.78H343.23C343.52 145.31 344.78 144.38 346.61 144.38C348.58 144.38 349.88 145.6 349.88 147.48V152.49H349.05L348.92 151.23C348.22 152.19 347.06 152.69 345.88 152.69C344.15 152.69 343.01 151.79 343.01 150.32C343.01 148.94 344.07 147.98 345.92 147.98H345.91ZM345.91 151.73C347.7 151.73 348.86 150.58 348.86 149.14V148.87H345.95C344.69 148.87 344.04 149.43 344.04 150.31C344.04 151.19 344.71 151.73 345.91 151.73Z" fill="#F8F0EC"/>
<path d="M355.561 151.54H356.471C357.211 150.87 357.401 150.18 357.861 144.56H363.691V151.54H364.891V154.81H363.881V152.51H356.561V154.81H355.551V151.54H355.561ZM362.671 151.54V145.54H358.811C358.491 149.86 358.231 150.82 357.641 151.54H362.671Z" fill="#F8F0EC"/>
<path d="M369.48 147.98H372.43V147.58C372.43 146.11 371.58 145.32 370.16 145.32C368.9 145.32 368.13 145.88 367.89 146.78H366.8C367.09 145.31 368.35 144.38 370.18 144.38C372.15 144.38 373.45 145.6 373.45 147.48V152.49H372.62L372.49 151.23C371.79 152.19 370.63 152.69 369.45 152.69C367.72 152.69 366.58 151.79 366.58 150.32C366.58 148.94 367.64 147.98 369.49 147.98H369.48ZM369.48 151.73C371.27 151.73 372.43 150.58 372.43 149.14V148.87H369.52C368.26 148.87 367.61 149.43 367.61 150.31C367.61 151.19 368.28 151.73 369.48 151.73Z" fill="#F8F0EC"/>
<path d="M382.31 148.89H377.27V152.49H376.25V144.55H377.27V147.91H382.31V144.55H383.33V152.49H382.31V148.89Z" fill="#F8F0EC"/>
<path d="M392.339 148.89H387.299V152.49H386.279V144.55H387.299V147.91H392.339V144.55H393.359V152.49H392.339V148.89Z" fill="#F8F0EC"/>
<path d="M396.311 144.56H397.331V147.35H399.631C401.581 147.35 402.671 148.44 402.671 149.93C402.671 151.42 401.581 152.51 399.631 152.51H396.301V144.57L396.311 144.56ZM399.541 151.57C400.981 151.57 401.641 150.91 401.641 149.92C401.641 148.93 400.981 148.27 399.541 148.27H397.331V151.57H399.541ZM404.421 144.56H405.441V152.5H404.421V144.56Z" fill="#F8F0EC"/>
<path d="M410.41 148.35L407.56 144.56H408.76L411.05 147.63L413.39 144.56H414.59L411.71 148.31L414.86 152.5H413.64L411.06 149.01L408.45 152.5H407.27L410.41 148.35Z" fill="#F8F0EC"/>
</g>
<defs>
<clipPath id="clip0_1023_133">
<rect width="455.14" height="155.58" fill="white"/>
</clipPath>
</defs>
</svg>
