<svg width="63.000000" height="36.000000" viewBox="0 0 63 36" fill="none" xmlns="http://www.w3.org/2000/svg" xmlns:xlink="http://www.w3.org/1999/xlink">
	<desc>
			Created with Pixso.
	</desc>
	<defs/>
	<path id="Ellipse 27" d="M63 18C63 18 42.2812 36 28.875 36C19.002 36 11 27.9409 11 18C11 8.05908 19.002 0 28.875 0C42.2812 0 63 18 63 18Z" fill="#2653FF" fill-opacity="1.000000" fill-rule="nonzero"/>
	<path id="Ellipse 28" d="M51.2266 18.6538C51.7285 18.2358 52 18 52 18C52 18 51.7285 17.7642 51.2266 17.3462C47.3516 14.1147 29.7461 0 17.875 0C8.00195 0 0 8.05908 0 18C0 27.9409 8.00195 36 17.875 36C29.7461 36 47.3516 21.8853 51.2266 18.6538ZM50.4629 18Q45.6387 22.0791 39.416 26.1641Q25.9551 35 17.875 35Q14.4258 35 11.4727 33.7866Q8.44727 32.543 5.94531 30.0234Q3.50391 27.5649 2.26758 24.6035Q1 21.5664 1 18Q1 14.4336 2.26758 11.3965Q3.50391 8.43506 5.94531 5.97656Q8.44727 3.45703 11.4727 2.21338Q14.4258 1 17.875 1Q25.9551 1 39.416 9.83594Q45.6387 13.9209 50.4629 18Z" fill="#F8F0EC" fill-opacity="1.000000" fill-rule="evenodd"/>
</svg>
